<svg xmlns="http://www.w3.org/2000/svg" xmlns:xlink="http://www.w3.org/1999/xlink">

  <!-- Close cross -->
  <symbol viewbox="0 0 48 48" id="icon-close">
    <path id="Tracé_2" data-name="Tracé 2" class="cls-1" d="M-221,407.5a13,13,0,0,1,13,13,13,13,0,0,1-13,13,13,13,0,0,1-13-13A13,13,0,0,1-221,407.5Z" transform="translate(234 -407.5)"/>
    <path class="cls-2" d="M-219.59,420.5l4.3-4.29a1,1,0,0,0,0-1.42,1,1,0,0,0-1.42,0l-4.29,4.3-4.29-4.3a1,1,0,0,0-1.42,0,1,1,0,0,0,0,1.42l4.3,4.29-4.3,4.29a1,1,0,0,0,0,1.42,1,1,0,0,0,.71.29,1,1,0,0,0,.71-.29l4.29-4.3,4.29,4.3a1,1,0,0,0,.71.29,1,1,0,0,0,.71-.29,1,1,0,0,0,0-1.42Z" transform="translate(234 -407.5)"/>
  </symbol>


</svg>